<svg xmlns="http://www.w3.org/2000/svg" id="Capa_1" version="1.1" viewBox="0 0 400 200">
  <!-- Generator: Adobe Illustrator 29.5.1, SVG Export Plug-In . SVG Version: 2.1.0 Build 141)  -->
  <defs fill="#000000">
    <style>
      .st0 {
        fill: #0b734e;
      }
    </style>
  </defs>
  <path class="st0" d="M166.47,75.8h-25.76c-.32,0-.59.27-.59.59v4.55c0,.33.26.59.59.59h9.35v16.74c0,.33.26.59.59.59h5.89c.33,0,.59-.26.59-.59v-16.74h9.35c.33,0,.59-.26.59-.59v-4.55c0-.33-.26-.59-.59-.59Z" fill="#000000"/>
  <path class="st0" d="M193.96,75.8h-20.75c-.33,0-.59.26-.59.59v21.88c0,.33.26.59.59.59h5.89c.33,0,.59-.26.59-.59v-5.4h11.12c2.2,0,2.9.8,2.9,3.22v2.18c0,.33.26.59.59.59h5.89c.33,0,.59-.26.59-.59v-3.33c0-3.79-1.75-4.71-3.85-5.1v-.06c3.25-.76,3.95-2.58,3.95-5.67v-1.47c0-4.14-1.46-6.85-6.91-6.85ZM193.99,84.72c0,1.66-.7,2.42-2.61,2.42h-11.69v-5.61h11.05c2.23,0,3.25.38,3.25,2.42v.76Z" fill="#000000"/>
  <path class="st0" d="M207.02,75.8h5.89c.33,0,.59.26.59.59v21.88c0,.33-.26.59-.59.59h-5.89c-.33,0-.59-.26-.59-.59v-21.88c0-.33.26-.59.59-.59Z" fill="#000000"/>
  <path class="st0" d="M248.11,90.64v-14.25c0-.33-.26-.59-.59-.59h-5.89c-.33,0-.59.26-.59.59v12.72c0,2.93-1.05,4.08-3.95,4.08h-7.01c-2.9,0-3.95-1.15-3.95-4.08v-12.72c0-.33-.26-.59-.59-.59h-5.89c-.33,0-.59.26-.59.59v14.25c0,5.73,2.96,8.47,9.46,8.47h10.13c6.5,0,9.46-2.74,9.46-8.47Z" fill="#000000"/>
  <path class="st0" d="M284.45,75.8h-5.89c-.33,0-.59.26-.59.59v16.16h-.06l-13.1-16.53c-.11-.14-.28-.22-.46-.22h-10.08c-.33,0-.59.26-.59.59v21.88c0,.33.26.59.59.59h5.89c.33,0,.59-.26.59-.59v-16.16h.06l13.1,16.53c.11.14.28.22.46.22h10.08c.33,0,.59-.26.59-.59v-21.88c0-.33-.26-.59-.59-.59Z" fill="#000000"/>
  <path class="st0" d="M313.89,90.4v-4.17c0-.33-.26-.59-.59-.59h-15.62v-4.3h16.42c.33,0,.59-.26.59-.59v-4.36c0-.33-.26-.59-.59-.59h-22.9c-.33,0-.59.26-.59.59v21.88c0,.33.26.59.59.59h5.89c.33,0,.59-.26.59-.59v-7.28h15.62c.33,0,.59-.26.59-.59Z" fill="#000000"/>
  <path class="st0" d="M341.75,75.89h-11.34c-6.37,0-10.16,1.59-10.16,8.34v6.88c0,6.75,3.79,8.34,10.16,8.34h11.34c6.37,0,10.16-1.59,10.16-8.34v-6.88c0-6.75-3.79-8.34-10.16-8.34ZM344.64,88.92c0,3.34-.7,4.62-4.04,4.62h-9.05c-3.34,0-4.04-1.27-4.04-4.62v-2.48c0-2.87.7-4.62,4.43-4.62h8.28c3.73,0,4.43,1.75,4.43,4.62v2.48Z" fill="#000000"/>
  <path class="st0" d="M105.87,82.88h-16.95c-.27,0-.52.12-.69.33l-5.18,6.41c-.13.16-.2.35-.2.56v25.58c0,.25.2.44.44.44h4.76c.25,0,.44-.2.44-.44v-26.9c0-.25.2-.44.44-.44h14.55c.17,0,.32-.09.4-.24l2.38-4.64c.15-.3-.06-.65-.4-.65Z" fill="#000000"/>
  <path class="st0" d="M76.02,83.21c-.17-.21-.42-.33-.69-.33h-16.95c-.33,0-.55.35-.4.65l2.38,4.64c.08.15.23.24.4.24h14.55c.25,0,.44.2.44.44v26.9c0,.25.2.44.44.44h4.76c.25,0,.44-.2.44-.44v-25.58c0-.2-.07-.4-.2-.56l-5.18-6.41Z" fill="#000000"/>
  <polygon class="st0" points="180.61 118.09 189.94 118.09 189.94 115.16 180.61 115.16 180.61 110.32 191.14 110.32 191.14 107.4 177.34 107.4 177.34 126.01 191.27 126.01 191.27 123.09 180.61 123.09 180.61 118.09" fill="#000000"/>
  <path class="st0" d="M284.24,113.33v-.05c0-1.62-.56-3.01-1.54-4.02-1.2-1.17-3.03-1.86-5.37-1.86h-8.3v18.62h3.27v-6.49h4.1l4.57,6.49h3.88l-5.03-7.05c2.58-.74,4.42-2.58,4.42-5.64ZM272.29,116.62v-6.25h4.76c2.42,0,3.86,1.09,3.86,3.08v.05c0,1.89-1.49,3.11-3.83,3.11h-4.79Z" fill="#000000"/>
  <path class="st0" d="M308.71,107.05c-5.72,0-9.76,4.39-9.76,9.63v.05c0,5.24,3.99,9.57,9.71,9.57s9.76-4.39,9.76-9.63v-.05c0-5.24-3.99-9.57-9.71-9.57ZM314.99,116.73c0,3.62-2.58,6.54-6.28,6.54s-6.33-2.98-6.33-6.6v-.05c0-3.62,2.58-6.57,6.28-6.57s6.33,3.01,6.33,6.62v.05Z" fill="#000000"/>
  <path class="st0" d="M214.87,118.43h4.76v3.48c-1.14.85-2.74,1.41-4.5,1.41-3.8,0-6.33-2.82-6.33-6.65v-.05c0-3.56,2.61-6.57,6.04-6.57,2.37,0,3.78.77,5.21,2l2.07-2.47c-1.91-1.62-3.91-2.53-7.15-2.53-5.61,0-9.6,4.42-9.6,9.63v.05c0,5.43,3.83,9.57,9.65,9.57,3.3,0,5.93-1.33,7.77-2.9v-7.82h-7.93v2.85Z" fill="#000000"/>
  <path class="st0" d="M157.28,115.24c-3.59-.85-4.44-1.49-4.44-2.93v-.05c0-1.22,1.12-2.21,3.03-2.21,1.7,0,3.38.66,5.05,1.92l1.76-2.47c-1.89-1.51-4.04-2.34-6.75-2.34-3.7,0-6.36,2.21-6.36,5.4v.05c0,3.43,2.23,4.6,6.2,5.56,3.46.8,4.2,1.52,4.2,2.85v.05c0,1.38-1.28,2.34-3.3,2.34-2.29,0-4.1-.88-5.88-2.42l-1.97,2.34c2.23,2,4.92,2.98,7.77,2.98,3.91,0,6.65-2.07,6.65-5.56v-.05c0-3.08-2.02-4.49-5.96-5.45Z" fill="#000000"/>
  <path class="st0" d="M250.41,118.11c0,3.43-1.78,5.16-4.68,5.16s-4.71-1.84-4.71-5.29v-10.59h-3.27v10.72c0,5.4,3.08,8.19,7.92,8.19s8.01-2.79,8.01-8.35v-10.56h-3.27v10.72Z" fill="#000000"/>
  <path class="st0" d="M338.88,115.24c-3.59-.85-4.44-1.49-4.44-2.93v-.05c0-1.22,1.12-2.21,3.03-2.21,1.7,0,3.38.66,5.05,1.92l1.76-2.47c-1.89-1.51-4.04-2.34-6.75-2.34-3.7,0-6.36,2.21-6.36,5.4v.05c0,3.43,2.23,4.6,6.2,5.56,3.46.8,4.2,1.52,4.2,2.85v.05c0,1.38-1.28,2.34-3.3,2.34-2.29,0-4.1-.88-5.88-2.42l-1.97,2.34c2.23,2,4.92,2.98,7.77,2.98,3.91,0,6.65-2.07,6.65-5.56v-.05c0-3.08-2.02-4.49-5.96-5.45Z" fill="#000000"/>
  <path class="st0" d="M118.54,66.62c-1.12-1.97-3.26-3.32-5.7-3.32h-61.43c-2.44,0-4.58,1.35-5.7,3.32l-7.4,12.53c-.57.97-.93,2.09-.93,3.29s.32,2.27.88,3.21c0,0,30.61,51.79,30.77,52.06,1.22,2.04,3.44,3.17,5.76,3.17h14.65c2.32,0,4.54-1.13,5.76-3.17.16-.27,30.77-52.06,30.77-52.06.56-.94.88-2.04.88-3.21s-.35-2.33-.93-3.29l-7.4-12.53ZM116.64,76.05l-34.25,58.33c-.06.1-.16.15-.27.15s-.21-.05-.27-.15l-34.25-58.33c-.07-.11.02-.25.14-.25h68.75c.13,0,.21.14.14.25Z" fill="#000000"/>
</svg>